# xmcd
#
# Track frame offsets:
#	150
#	21180
#	39257
#	47445
#	60337
#	76590
#	90240
#	103217
#	114127
#	128337
#	146502
#	160047
#	171437
#	182240
#	199880
#	212507
#	225195
#
# Disc length: 3043 seconds
#
# Revision: 0
# Processed by: cddbd v1.5.2PL0 Copyright (c) Steve Scherf et al.
# Submitted via: FairStars CD Ripper 1.70
#
DISCID=c20be111
DTITLE=Various Artist - Cajun Moon - The Best of the Bayou 
DYEAR=1997
DGENRE=cajun
TTITLE0=JJ Reneaux Band  - Tous les temps en temps (Every Now and Then)
TTITLE1=The Deadweights and Memphis Roots  - Cajun Moon
TTITLE2=JJ Milteau  - Gumbo
TTITLE3=JJ Milteau  - O ye yai quoi faire (Trad.)
TTITLE4=JJ Reneaux Band  - By You On the Bayou Tonight
TTITLE5=Charlie McCoy and the United  - Crawdaddy Stomp
TTITLE6=Charlie McCoy and the United  - Bayou Lafayette
TTITLE7=JJ Reneaux Band  - Les flames d'enfer (Trad.)
TTITLE8=Ruddy and the Ghost Riders  - Louise (Like Sweet White Wine)
TTITLE9=The Deadweights and Memphis Roots  - All You Ever Do Is Bring Me Down
TTITLE10=Americana  - Jolie-Ann
TTITLE11=Richard Dobson and State of the Heart  - Down in Lafayette
TTITLE12=JJ Milteau  - Louisville
TTITLE13=JJ Reneaux Band  - Julie Jean Bad Bad Girl
TTITLE14=Americana  - Bootleggin'
TTITLE15=JJ Reneaux Band  - Raise My Window High
TTITLE16=The Deadweights and Memphis Roots  - Cajun Moon (Reprise)
EXTD=
EXTT0=
EXTT1=
EXTT2=
EXTT3=
EXTT4=
EXTT5=
EXTT6=
EXTT7=
EXTT8=
EXTT9=
EXTT10=
EXTT11=
EXTT12=
EXTT13=
EXTT14=
EXTT15=
EXTT16=
PLAYORDER=
